HIERARCHY
ROOT Hips
{
	OFFSET 0.000000 105.246201 0.000000
	CHANNELS 6 Xposition Yposition Zposition Xrotation Yrotation Zrotation 
	JOINT Spine
	{
		OFFSET 0.000000 5.245300 0.258800
		CHANNELS 3 Xrotation Yrotation Zrotation
		JOINT Spine1
		{
			OFFSET -0.022433 6.371267 -0.595100
			CHANNELS 3 Xrotation Yrotation Zrotation
			JOINT Spine1_split
			{
				OFFSET -0.022433 6.371267 -0.595100
				CHANNELS 3 Xrotation Yrotation Zrotation
				JOINT Spine2
				{
					OFFSET -0.022433 6.371267 -0.595100
					CHANNELS 3 Xrotation Yrotation Zrotation
					JOINT Neck
					{
						OFFSET -0.040300 18.919495 -3.736100
						CHANNELS 3 Xrotation Yrotation Zrotation
						JOINT Head
						{
							OFFSET 0.000000 8.673004 3.319300
							CHANNELS 3 Xrotation Yrotation Zrotation
							JOINT HeadTop_End
							{
								OFFSET 0.000000 17.183899 4.948500
								CHANNELS 3 Xrotation Yrotation Zrotation
								End Site
								{
									OFFSET 0.000000 0.000000 0.000000
								}
							}
						}
					}
					JOINT RightShoulder
					{
						OFFSET -3.288350 7.512253 -1.059800
						CHANNELS 3 Xrotation Yrotation Zrotation
						JOINT RightShoulder_split
						{
							OFFSET -3.288350 7.512253 -1.059800
							CHANNELS 3 Xrotation Yrotation Zrotation
							JOINT RightArm
							{
								OFFSET -8.685001 -1.766190 -2.569600
								CHANNELS 3 Xrotation Yrotation Zrotation
								JOINT RightForeArm
								{
									OFFSET -24.573898 0.000000 0.000000
									CHANNELS 3 Xrotation Yrotation Zrotation
									JOINT RightHand
									{
										OFFSET -23.096600 0.000000 0.000000
										CHANNELS 3 Xrotation Yrotation Zrotation
										JOINT RightHandThumb1
										{
											OFFSET -3.660297 -1.518570 2.005537
											CHANNELS 3 Xrotation Yrotation Zrotation
											JOINT RightHandThumb2
											{
												OFFSET -2.341904 -1.352097 1.352098
												CHANNELS 3 Xrotation Yrotation Zrotation
												JOINT RightHandThumb3
												{
													OFFSET -3.105812 -1.793137 1.793141
													CHANNELS 3 Xrotation Yrotation Zrotation
													JOINT RightHandThumb4
													{
														OFFSET -2.532341 -1.462051 1.462046
														CHANNELS 3 Xrotation Yrotation Zrotation
														End Site
														{
															OFFSET 0.000000 0.000000 0.000000
														}
													}
												}
											}
										}
										JOINT RightHandIndex1
										{
											OFFSET -11.104504 -0.229523 2.326600
											CHANNELS 3 Xrotation Yrotation Zrotation
											JOINT RightHandIndex2
											{
												OFFSET -2.594704 0.000000 0.000000
												CHANNELS 3 Xrotation Yrotation Zrotation
												JOINT RightHandIndex3
												{
													OFFSET -1.969902 0.000000 0.000000
													CHANNELS 3 Xrotation Yrotation Zrotation
													JOINT RightHandIndex4
													{
														OFFSET -2.511757 0.000000 0.000000
														CHANNELS 3 Xrotation Yrotation Zrotation
														End Site
														{
															OFFSET 0.000000 0.000000 0.000000
														}
													}
												}
											}
										}
										JOINT RightHandMiddle1
										{
											OFFSET -11.447598 0.000000 0.000000
											CHANNELS 3 Xrotation Yrotation Zrotation
											JOINT RightHandMiddle2
											{
												OFFSET -2.882401 0.000000 0.000000
												CHANNELS 3 Xrotation Yrotation Zrotation
												JOINT RightHandMiddle3
												{
													OFFSET -2.055801 0.000000 0.000000
													CHANNELS 3 Xrotation Yrotation Zrotation
													JOINT RightHandMiddle4
													{
														OFFSET -2.746101 0.000000 0.000000
														CHANNELS 3 Xrotation Yrotation Zrotation
														End Site
														{
															OFFSET 0.000000 0.000000 0.000000
														}
													}
												}
											}
										}
										JOINT RightHandRing1
										{
											OFFSET -10.605602 0.268188 -2.247283
											CHANNELS 3 Xrotation Yrotation Zrotation
											JOINT RightHandRing2
											{
												OFFSET -3.015999 0.000000 0.000000
												CHANNELS 3 Xrotation Yrotation Zrotation
												JOINT RightHandRing3
												{
													OFFSET -2.233421 0.000000 0.000000
													CHANNELS 3 Xrotation Yrotation Zrotation
													JOINT RightHandRing4
													{
														OFFSET -2.304497 0.000000 0.000000
														CHANNELS 3 Xrotation Yrotation Zrotation
														End Site
														{
															OFFSET 0.000000 0.000000 0.000000
														}
													}
												}
											}
										}
										JOINT RightHandPinky1
										{
											OFFSET -9.628201 -0.341736 -4.027850
											CHANNELS 3 Xrotation Yrotation Zrotation
											JOINT RightHandPinky2
											{
												OFFSET -2.737701 0.000000 0.000000
												CHANNELS 3 Xrotation Yrotation Zrotation
												JOINT RightHandPinky3
												{
													OFFSET -1.441902 0.000000 0.000000
													CHANNELS 3 Xrotation Yrotation Zrotation
													JOINT RightHandPinky4
													{
														OFFSET -2.097298 0.000000 0.000000
														CHANNELS 3 Xrotation Yrotation Zrotation
														End Site
														{
															OFFSET 0.000000 0.000000 0.000000
														}
													}
												}
											}
										}
										JOINT sword_joint
										{
											OFFSET -9.605701 -1.943634 1.008051
											CHANNELS 3 Xrotation Yrotation Zrotation
											End Site
											{
												OFFSET 0.000000 0.000000 0.000000
											}
										}
									}
								}
							}
						}
					}
					JOINT LeftShoulder
					{
						OFFSET 3.355600 7.512253 -1.059800
						CHANNELS 3 Xrotation Yrotation Zrotation
						JOINT LeftShoulder_split
						{
							OFFSET 3.355600 7.512253 -1.059800
							CHANNELS 3 Xrotation Yrotation Zrotation
							JOINT LeftArm
							{
								OFFSET 8.685001 -1.766190 -2.569600
								CHANNELS 3 Xrotation Yrotation Zrotation
								JOINT LeftForeArm
								{
									OFFSET 24.573900 0.000000 0.000000
									CHANNELS 3 Xrotation Yrotation Zrotation
									JOINT LeftHand
									{
										OFFSET 23.096600 0.000000 0.000000
										CHANNELS 3 Xrotation Yrotation Zrotation
										JOINT LeftHandThumb1
										{
											OFFSET 3.660297 -1.518570 2.005537
											CHANNELS 3 Xrotation Yrotation Zrotation
											JOINT LeftHandThumb2
											{
												OFFSET 2.341904 -1.352097 1.352098
												CHANNELS 3 Xrotation Yrotation Zrotation
												JOINT LeftHandThumb3
												{
													OFFSET 3.105812 -1.793137 1.793141
													CHANNELS 3 Xrotation Yrotation Zrotation
													JOINT LeftHandThumb4
													{
														OFFSET 2.532341 -1.462051 1.462046
														CHANNELS 3 Xrotation Yrotation Zrotation
														End Site
														{
															OFFSET 0.000000 0.000000 0.000000
														}
													}
												}
											}
										}
										JOINT LeftHandIndex1
										{
											OFFSET 11.104496 -0.229523 2.326600
											CHANNELS 3 Xrotation Yrotation Zrotation
											JOINT LeftHandIndex2
											{
												OFFSET 2.594704 0.000000 0.000000
												CHANNELS 3 Xrotation Yrotation Zrotation
												JOINT LeftHandIndex3
												{
													OFFSET 1.969902 0.000000 0.000000
													CHANNELS 3 Xrotation Yrotation Zrotation
													JOINT LeftHandIndex4
													{
														OFFSET 2.511757 0.000000 0.000000
														CHANNELS 3 Xrotation Yrotation Zrotation
														End Site
														{
															OFFSET 0.000000 0.000000 0.000000
														}
													}
												}
											}
										}
										JOINT LeftHandMiddle1
										{
											OFFSET 11.447598 0.000000 0.000000
											CHANNELS 3 Xrotation Yrotation Zrotation
											JOINT LeftHandMiddle2
											{
												OFFSET 2.882401 0.000000 0.000000
												CHANNELS 3 Xrotation Yrotation Zrotation
												JOINT LeftHandMiddle3
												{
													OFFSET 2.055801 0.000000 0.000000
													CHANNELS 3 Xrotation Yrotation Zrotation
													JOINT LeftHandMiddle4
													{
														OFFSET 2.746101 0.000000 0.000000
														CHANNELS 3 Xrotation Yrotation Zrotation
														End Site
														{
															OFFSET 0.000000 0.000000 0.000000
														}
													}
												}
											}
										}
										JOINT LeftHandRing1
										{
											OFFSET 10.605602 0.268188 -2.247283
											CHANNELS 3 Xrotation Yrotation Zrotation
											JOINT LeftHandRing2
											{
												OFFSET 3.015999 0.000000 0.000000
												CHANNELS 3 Xrotation Yrotation Zrotation
												JOINT LeftHandRing3
												{
													OFFSET 2.233421 0.000000 0.000000
													CHANNELS 3 Xrotation Yrotation Zrotation
													JOINT LeftHandRing4
													{
														OFFSET 2.304497 0.000000 0.000000
														CHANNELS 3 Xrotation Yrotation Zrotation
														End Site
														{
															OFFSET 0.000000 0.000000 0.000000
														}
													}
												}
											}
										}
										JOINT LeftHandPinky1
										{
											OFFSET 9.628201 -0.341736 -4.027850
											CHANNELS 3 Xrotation Yrotation Zrotation
											JOINT LeftHandPinky2
											{
												OFFSET 2.737701 0.000000 0.000000
												CHANNELS 3 Xrotation Yrotation Zrotation
												JOINT LeftHandPinky3
												{
													OFFSET 1.441902 0.000000 0.000000
													CHANNELS 3 Xrotation Yrotation Zrotation
													JOINT LeftHandPinky4
													{
														OFFSET 2.097298 0.000000 0.000000
														CHANNELS 3 Xrotation Yrotation Zrotation
														End Site
														{
															OFFSET 0.000000 0.000000 0.000000
														}
													}
												}
											}
										}
									}
								}
							}
						}
					}
				}
			}
		}
	}
	JOINT LeftUpLeg
	{
		OFFSET 9.688800 -5.685204 -1.688600
		CHANNELS 3 Xrotation Yrotation Zrotation
		JOINT LeftLeg
		{
			OFFSET -0.656547 -43.138897 1.439100
			CHANNELS 3 Xrotation Yrotation Zrotation
			JOINT LeftFoot
			{
				OFFSET 0.656547 -40.701107 -4.209000
				CHANNELS 3 Xrotation Yrotation Zrotation
				JOINT LeftToeBase
				{
					OFFSET 0.862000 -15.666400 8.614100
					CHANNELS 3 Xrotation Yrotation Zrotation
					JOINT LeftToe_End
					{
						OFFSET 2.007600 -0.054600 13.323701
						CHANNELS 3 Xrotation Yrotation Zrotation
						End Site
						{
							OFFSET 0.000000 0.000000 0.000000
						}
					}
				}
			}
		}
	}
	JOINT RightUpLeg
	{
		OFFSET -9.688800 -5.685204 -1.688600
		CHANNELS 3 Xrotation Yrotation Zrotation
		JOINT RightLeg
		{
			OFFSET 0.656503 -43.138908 1.438900
			CHANNELS 3 Xrotation Yrotation Zrotation
			JOINT RightFoot
			{
				OFFSET -0.656503 -40.701092 -4.208900
				CHANNELS 3 Xrotation Yrotation Zrotation
				JOINT RightToeBase
				{
					OFFSET -0.862000 -15.666400 8.614100
					CHANNELS 3 Xrotation Yrotation Zrotation
					JOINT RightToe_End
					{
						OFFSET -2.007600 -0.054600 13.323700
						CHANNELS 3 Xrotation Yrotation Zrotation
						End Site
						{
							OFFSET 0.000000 0.000000 0.000000
						}
					}
				}
			}
		}
	}
}
MOTION
Frames: 4
Frame Time: 0.016667
-0.094649 103.660202 1.930099 3.816407 -3.695473 -0.133492 0.169977 0.313645 -0.036147 0.511368 0.555630 -0.149995 0.000000 0.000000 0.000000 0.508119 0.557001 -0.156049 -12.568410 -1.447528 2.637434 10.197547 3.163033 -2.584844 0.000000 -0.000000 -0.000000 2.087500 14.855919 10.815228 0.000000 0.000000 0.000000 -4.515512 3.403573 66.314587 0.000003 7.533710 0.000009 10.827174 0.054048 8.057272 -13.495559 -11.552053 -5.371115 13.666566 -20.582686 -6.820346 3.162464 -4.141726 -22.215043 0.000002 -0.000004 -0.000006 0.246064 -3.262782 18.902291 0.589429 -2.269663 29.112636 0.172158 -1.255807 15.610703 0.000000 0.000003 0.000004 -0.702536 -1.215802 21.259783 0.924234 -2.786652 36.691865 0.558016 -2.212361 28.309418 -0.000001 0.000002 0.000000 -0.941527 -2.664829 38.529258 0.358956 -1.794607 22.620034 0.313730 -1.682020 21.129358 -0.000000 -0.000000 -0.000000 -2.260376 -1.124637 39.408139 0.612401 -2.310407 29.687602 0.130088 -1.094190 13.559640 0.000001 -0.000001 0.000001 0.000001 0.000000 0.000000 1.604992 -11.385831 -9.553343 0.000000 0.000000 0.000000 4.329746 -15.662800 -64.423048 0.000004 -12.874970 0.000003 1.693017 -1.937946 -8.457201 0.699757 -6.020121 19.223943 19.074647 26.512443 -1.026319 3.271085 -0.981138 3.963642 -0.000003 0.000000 0.000001 0.460228 4.491398 -23.662340 0.883098 3.094849 -31.844207 0.339548 1.967247 -19.583698 -0.000001 -0.000000 0.000003 2.486441 8.732148 -25.419676 1.496297 3.911568 -41.853992 0.476277 2.315682 -23.241539 0.000000 0.000000 -0.000000 3.090045 8.505082 -34.940355 1.098185 3.416407 -35.630262 0.533261 2.443994 -24.613773 0.000000 -0.000000 0.000001 3.603256 12.761693 -45.581312 0.673748 2.729597 -27.725799 0.090003 1.024034 -10.045309 -0.000000 -0.000000 -0.000000 -8.334964 12.618680 9.778614 6.487716 4.706861 2.133101 -1.265723 0.793160 -10.485989 0.071450 0.001439 -0.184593 -0.000000 -0.000002 0.000000 -9.044104 -8.707601 -8.202670 4.812858 1.567438 -2.846810 0.365983 -0.583798 10.347778 0.101145 -0.003826 0.260861 0.000000 0.000000 -0.000000 
-0.124200 103.633163 1.779008 3.874721 -3.758858 -0.128628 0.240566 0.313822 -0.031269 0.631426 0.553610 -0.167787 0.000000 0.000000 0.000000 0.628206 0.555323 -0.173808 -12.798987 -1.440234 2.599678 9.808696 3.136351 -2.589978 -0.000000 0.000000 -0.000000 2.048525 15.072942 10.909351 0.000000 0.000000 0.000000 -5.014893 4.147754 65.605237 0.000002 7.653957 -0.000004 11.046983 0.301163 7.455134 -13.495559 -11.552053 -5.371116 14.325605 -21.561866 -6.195297 3.161416 -4.073229 -22.189995 -0.000000 -0.000001 -0.000002 0.228988 -3.178555 19.186247 0.600425 -2.289274 29.389102 0.171964 -1.255111 15.601752 0.000002 0.000000 0.000001 -0.797203 -1.045008 21.750317 0.926996 -2.790346 36.748501 0.557686 -2.211741 28.300771 -0.000000 -0.000001 0.000000 -1.122948 -2.499961 39.183928 0.359246 -1.795287 22.629120 0.312613 -1.679120 21.091301 -0.000000 -0.000001 -0.000001 -2.498811 -0.909321 39.911060 0.603168 -2.294149 29.457803 0.128639 -1.088165 13.483482 0.000000 0.000000 -0.000001 0.000002 -0.000001 0.000000 1.578485 -11.588109 -9.701073 0.000000 0.000000 0.000000 3.463174 -15.711008 -63.861313 -0.000004 -13.067964 -0.000000 1.289009 -2.309095 -7.249973 0.699757 -6.020121 19.223941 19.317626 26.877494 -1.279797 3.201946 -1.196586 4.293590 0.000000 -0.000001 -0.000001 0.444455 4.459299 -23.967472 0.888271 3.103166 -31.939997 0.328986 1.937321 -19.273588 0.000000 0.000000 0.000001 2.535944 8.763585 -25.832356 1.499702 3.915365 -41.903989 0.476443 2.316069 -23.245552 -0.000000 -0.000001 0.000000 3.082941 8.487990 -35.009289 1.095701 3.412952 -35.588714 0.535407 2.448668 -24.664071 -0.000000 -0.000003 -0.000000 3.597283 12.731759 -45.710549 0.674703 2.731399 -27.745789 0.090813 1.028607 -10.090588 0.000001 0.000000 -0.000000 -8.753389 12.509824 9.818154 7.037977 4.820708 2.145388 -1.448056 0.779696 -10.260484 0.156122 0.001607 -0.403247 -0.000000 0.000000 -0.000000 -9.354842 -8.593297 -8.173622 5.118133 1.559604 -2.897378 0.316384 -0.587082 10.379374 0.086152 -0.003470 0.222060 -0.000000 0.000002 -0.000000 
-0.146912 103.600212 1.564055 3.933908 -3.813649 -0.121647 0.305610 0.321006 -0.036675 0.741094 0.564831 -0.174009 0.000000 0.000000 0.000000 0.737876 0.566764 -0.179867 -13.027476 -1.431680 2.556557 9.432712 3.101472 -2.583373 0.000000 -0.000000 -0.000000 2.021896 15.237211 10.938236 0.000000 0.000000 0.000000 -5.721471 5.169905 64.777480 -0.000000 7.772762 -0.000020 11.358604 0.526375 6.864112 -13.495559 -11.552051 -5.371116 14.808125 -22.255777 -5.735004 3.155420 -3.999541 -22.196199 0.000000 -0.000001 -0.000002 0.220736 -3.141217 19.550508 0.611571 -2.308955 29.667145 0.171819 -1.254620 15.595490 0.000000 -0.000001 0.000002 -0.872123 -0.924060 22.185619 0.929720 -2.793995 36.804382 0.557426 -2.211258 28.294122 0.000000 -0.000000 0.000000 -1.270374 -2.375965 39.745062 0.359849 -1.796754 22.648636 0.312205 -1.678059 21.077171 0.000000 -0.000002 0.000000 -2.679493 -0.756547 40.319481 0.596755 -2.282763 29.297069 0.127349 -1.082778 13.415508 -0.000001 0.000001 -0.000000 -0.000001 0.000000 -0.000000 1.559492 -11.724949 -9.805692 0.000000 0.000000 0.000000 2.356365 -16.032027 -63.138556 -0.000009 -13.239543 -0.000005 0.848731 -2.655932 -6.179277 0.699756 -6.020120 19.223940 19.488601 27.138355 -1.462368 3.145106 -1.352819 4.535649 0.000001 -0.000002 -0.000003 0.422267 4.413575 -24.222434 0.892318 3.109641 -32.014750 0.320123 1.911813 -19.009933 -0.000000 0.000001 -0.000000 2.571478 8.778218 -26.172786 1.502897 3.918918 -41.950841 0.476530 2.316259 -23.247759 0.000000 -0.000001 -0.000000 3.068290 8.463298 -35.049628 1.094566 3.411378 -35.569631 0.537357 2.452890 -24.709458 -0.000000 0.000004 0.000000 3.576058 12.700114 -45.745933 0.674049 2.730149 -27.731924 0.091431 1.032069 -10.124950 -0.000000 -0.000001 -0.000000 -9.180514 12.387556 9.869410 7.522743 4.932378 2.146847 -1.553501 0.773571 -10.148848 0.191780 0.001104 -0.495355 -0.000000 0.000000 -0.000000 -9.755651 -8.429789 -8.141897 5.530600 1.508284 -2.960607 0.253326 -0.583723 10.370437 0.086271 -0.003571 0.222228 -0.000000 -0.000000 0.000000 
-0.158213 103.544228 1.286590 4.015627 -3.860570 -0.129891 0.367615 0.332032 -0.041834 0.845095 0.582983 -0.174351 0.000000 0.000000 0.000000 0.841870 0.585079 -0.179985 -13.256636 -1.419932 2.509387 9.077548 3.070005 -2.564475 -0.000000 -0.000000 -0.000000 2.004776 15.364254 10.914033 0.000000 0.000000 0.000000 -6.592202 6.403790 63.892547 -0.000003 7.896552 -0.000012 11.670502 0.762166 6.301985 -13.495563 -11.552052 -5.371114 15.172620 -22.767428 -5.385891 3.148050 -3.932267 -22.213035 0.000003 -0.000003 -0.000003 0.217147 -3.128564 19.949804 0.622015 -2.327182 29.925333 0.171713 -1.254224 15.590451 0.000001 0.000001 0.000004 -0.936591 -0.829267 22.587082 0.932146 -2.797228 36.854273 0.557173 -2.210793 28.287589 -0.000001 -0.000002 -0.000000 -1.400664 -2.273164 40.254642 0.360613 -1.798576 22.673032 0.312061 -1.677689 21.072344 -0.000001 -0.000000 0.000000 -2.835783 -0.629915 40.680187 0.591918 -2.274113 29.175238 0.126159 -1.077758 13.352345 -0.000001 -0.000003 -0.000001 -0.000001 0.000001 0.000000 1.546080 -11.823438 -9.874654 0.000000 0.000000 0.000000 1.068165 -16.553115 -62.333030 0.000000 -13.432482 -0.000038 0.354298 -2.978665 -5.233016 0.699751 -6.020120 19.223943 19.623031 27.349853 -1.610593 3.095556 -1.473482 4.728846 0.000002 -0.000001 -0.000003 0.396890 4.361886 -24.462049 0.896007 3.115528 -32.082724 0.312335 1.889036 -18.774604 0.000000 0.000002 0.000002 2.599606 8.783244 -26.481074 1.506021 3.922366 -41.996364 0.476582 2.316381 -23.249067 0.000000 0.000002 0.000000 3.048852 8.433300 -35.076208 1.094269 3.410946 -35.564617 0.539140 2.456768 -24.751257 -0.000000 -0.000002 -0.000000 3.544179 12.665617 -45.724111 0.672374 2.726970 -27.696871 0.091931 1.034875 -10.152800 0.000000 -0.000001 -0.000001 -9.764897 12.238726 9.975799 8.188038 5.032055 2.125954 -1.707483 0.779274 -10.102710 0.178022 0.000957 -0.459864 0.000000 -0.000002 -0.000000 -10.311385 -8.227852 -8.111738 6.138629 1.442350 -3.019514 0.131149 -0.581178 10.348899 0.089903 -0.003801 0.231832 0.000000 0.000001 -0.000000 
